# xmcd
#
# Track frame offsets:
#	150
#	14298
#	32826
#	49759
#	67373
#	85629
#	91527
#	108809
#	127564
#	143504
#	163495
#	168394
#	189144
#	203627
#	221153
#	240226
#
# Disc length: 3549 seconds
#
# Revision: 6
# Processed by: cddbd v1.5.2PL0 Copyright (c) Steve Scherf et al.
# Submitted via: audiograbber 1.83.01
#
DISCID=c60ddb10
DTITLE=Cassidy - Split Personality
DYEAR=2004
DGENRE=Rap
TTITLE0=My Interpretation
TTITLE1=Hotel (feat R. Kelly)
TTITLE2=Lipstick
TTITLE3=Get No Better (feat Mashonda)
TTITLE4=Make U Scream (feat Snoop Dogg) 
TTITLE5=Skit: Tha Problem
TTITLE6=Tha Problem
TTITLE7=Pop That Cannon (feat Styles P)
TTITLE8=Blood Pressure
TTITLE9=Can I Talk To You? (feat Jadakiss)
TTITLE10=Skit: Real Talk
TTITLE11=Real Talk
TTITLE12=Husslin'
TTITLE13=I'm Hungry
TTITLE14=Around Tha World
TTITLE15=Hotel (Vacation Remix) (feat R. Kelly, Trina) (Bonus Track)
EXTD=www.RapMusicGuide.com
EXTT0=
EXTT1=Cassidy
EXTT2=Cassidy
EXTT3=Cassidy
EXTT4=Cassidy
EXTT5=Tha Problem
EXTT6=Tha Problem
EXTT7=Tha Problem
EXTT8=Tha Problem
EXTT9=Tha Problem
EXTT10=B.Reese
EXTT11=B.Reese
EXTT12=B.Reese
EXTT13=B.Reese
EXTT14=B.Reese
EXTT15=
PLAYORDER=
